<svg width="427" height="409" viewBox="0 0 427 409" fill="none" xmlns="http://www.w3.org/2000/svg">
<g filter="url(#filter0_di_1_78)">
<rect x="39" width="349.146" height="332.626" rx="42.99" fill="white"/>
<g clip-path="url(#clip0_1_78)">
<g filter="url(#filter1_di_1_78)">
<path fill-rule="evenodd" clip-rule="evenodd" d="M253.302 95.3866C245.388 95.2359 238.851 101.529 238.7 109.443C238.549 117.357 244.842 123.894 252.756 124.045L280.58 124.575L226.6 178.498L200.668 151.558C198.005 148.793 194.345 147.211 190.506 147.167C186.668 147.123 182.972 148.621 180.247 151.325L118.628 212.475C113.01 218.051 112.976 227.125 118.551 232.743C124.127 238.362 133.201 238.396 138.819 232.821L190.109 181.921L216.075 208.895C218.743 211.666 222.413 213.249 226.26 213.287C230.107 213.324 233.807 211.814 236.529 209.095L300.34 145.351L299.838 171.685C299.688 179.599 305.981 186.136 313.895 186.287C321.809 186.438 328.346 180.144 328.497 172.231L329.66 111.175C329.81 103.261 323.517 96.7238 315.603 96.5731L253.302 95.3866Z" fill="url(#paint0_linear_1_78)"/>
</g>
</g>
</g>
<defs>
<filter id="filter0_di_1_78" x="0.970188" y="-13.2662" width="425.206" height="421.951" filterUnits="userSpaceOnUse" color-interpolation-filters="sRGB">
<feFlood flood-opacity="0" result="BackgroundImageFix"/>
<feColorMatrix in="SourceAlpha" type="matrix" values="0 0 0 0 0 0 0 0 0 0 0 0 0 0 0 0 0 0 127 0" result="hardAlpha"/>
<feOffset dy="38.0298"/>
<feGaussianBlur stdDeviation="19.0149"/>
<feColorMatrix type="matrix" values="0 0 0 0 0 0 0 0 0 0 0 0 0 0 0 0 0 0 0.15 0"/>
<feBlend mode="normal" in2="BackgroundImageFix" result="effect1_dropShadow_1_78"/>
<feBlend mode="normal" in="SourceGraphic" in2="effect1_dropShadow_1_78" result="shape"/>
<feColorMatrix in="SourceAlpha" type="matrix" values="0 0 0 0 0 0 0 0 0 0 0 0 0 0 0 0 0 0 127 0" result="hardAlpha"/>
<feOffset dy="-13.2662"/>
<feGaussianBlur stdDeviation="13.2662"/>
<feComposite in2="hardAlpha" operator="arithmetic" k2="-1" k3="1"/>
<feColorMatrix type="matrix" values="0 0 0 0 0 0 0 0 0 0 0 0 0 0 0 0 0 0 0.25 0"/>
<feBlend mode="normal" in2="shape" result="effect2_innerShadow_1_78"/>
</filter>
<filter id="filter1_di_1_78" x="90.5544" y="82.5484" width="262.945" height="196.606" filterUnits="userSpaceOnUse" color-interpolation-filters="sRGB">
<feFlood flood-opacity="0" result="BackgroundImageFix"/>
<feColorMatrix in="SourceAlpha" type="matrix" values="0 0 0 0 0 0 0 0 0 0 0 0 0 0 0 0 0 0 127 0" result="hardAlpha"/>
<feOffset dy="18.3366"/>
<feGaussianBlur stdDeviation="11.9188"/>
<feColorMatrix type="matrix" values="0 0 0 0 0.679167 0 0 0 0 0.104705 0 0 0 0 0.104705 0 0 0 0.37 0"/>
<feBlend mode="normal" in2="BackgroundImageFix" result="effect1_dropShadow_1_78"/>
<feBlend mode="normal" in="SourceGraphic" in2="effect1_dropShadow_1_78" result="shape"/>
<feColorMatrix in="SourceAlpha" type="matrix" values="0 0 0 0 0 0 0 0 0 0 0 0 0 0 0 0 0 0 127 0" result="hardAlpha"/>
<feOffset dy="-18.3366"/>
<feGaussianBlur stdDeviation="6.4178"/>
<feComposite in2="hardAlpha" operator="arithmetic" k2="-1" k3="1"/>
<feColorMatrix type="matrix" values="0 0 0 0 0 0 0 0 0 0 0 0 0 0 0 0 0 0 0.2 0"/>
<feBlend mode="normal" in2="shape" result="effect2_innerShadow_1_78"/>
</filter>
<linearGradient id="paint0_linear_1_78" x1="223.398" y1="94.8171" x2="220.657" y2="238.733" gradientUnits="userSpaceOnUse">
<stop stop-color="#EE7878"/>
<stop offset="1" stop-color="#C6512C"/>
</linearGradient>
<clipPath id="clip0_1_78">
<rect width="256.712" height="256.712" fill="white" transform="translate(95.9449 35.5361) rotate(1.09103)"/>
</clipPath>
</defs>
</svg>
